HIERARCHY
ROOT Hips
{
	OFFSET 0.00 0.00 0.00
	CHANNELS 6 Xposition Yposition Zposition Xrotation Yrotation Zrotation
	JOINT RightUpLeg
	{
		OFFSET -3.69398 0.00000 0.00000
		CHANNELS 3 Xrotation Yrotation Zrotation
		JOINT RightLeg
		{
			OFFSET 0.00000 -15.79567 0.00000
			CHANNELS 3 Xrotation Yrotation Zrotation
			JOINT RightFoot
			{
				OFFSET 0.00000 -14.76699 0.00000
				CHANNELS 3 Xrotation Yrotation Zrotation
				JOINT RightToeBase
				{
					OFFSET 0.00000 -1.28446 4.79369
					CHANNELS 3 Xrotation Yrotation Zrotation
					End Site
					{
						OFFSET 0.00000 0.00000 2.95275
					}
				}
			}
		}
	}
	JOINT LeftUpLeg
	{
		OFFSET 3.69398 0.00000 0.00000
		CHANNELS 3 Xrotation Yrotation Zrotation
		JOINT LeftLeg
		{
			OFFSET 0.00000 -15.79567 0.00000
			CHANNELS 3 Xrotation Yrotation Zrotation
			JOINT LeftFoot
			{
				OFFSET 0.00000 -14.76699 0.00000
				CHANNELS 3 Xrotation Yrotation Zrotation
				JOINT LeftToeBase
				{
					OFFSET 0.00000 -1.28446 4.79369
					CHANNELS 3 Xrotation Yrotation Zrotation
					End Site
					{
						OFFSET 0.00000 0.00000 2.95275
					}
				}
			}
		}
	}
	JOINT Spine
	{
		OFFSET 0.00000 2.39296 0.00000
		CHANNELS 3 Xrotation Yrotation Zrotation
		JOINT RightShoulder
		{
			OFFSET 0.00000 13.20741 0.00000
			CHANNELS 3 Xrotation Yrotation Zrotation
			JOINT RightArm
			{
				OFFSET -8.14047 0.00000 0.00000
				CHANNELS 3 Xrotation Yrotation Zrotation
				JOINT RightForeArm
				{
					OFFSET -10.64984 0.00000 0.00000
					CHANNELS 3 Yrotation Zrotation Xrotation
					JOINT RightHand
					{
						OFFSET -8.30462 0.00000 0.00000
						CHANNELS 3 Xrotation Yrotation Zrotation
						End Site
						{
							OFFSET -3.93700 0.00000 0.00000
						}
						JOINT RightHandThumb1
						{
							OFFSET 0.00000 0.00000 0.00000
							CHANNELS 3 Xrotation Zrotation Yrotation
							End Site
							{
								OFFSET 0.00000 0.00000 3.93700
							}
						}
					}
				}
			}
		}
		JOINT LeftShoulder
		{
			OFFSET 0.00000 13.20741 0.00000
			CHANNELS 3 Xrotation Yrotation Zrotation
			JOINT LeftArm
			{
				OFFSET 8.14047 0.00000 0.00000
				CHANNELS 3 Xrotation Yrotation Zrotation
				JOINT LeftForeArm
				{
					OFFSET 10.64984 0.00000 0.00000
					CHANNELS 3 Yrotation Zrotation Xrotation
					JOINT LeftHand
					{
						OFFSET 8.30462 0.00000 0.00000
						CHANNELS 3 Xrotation Yrotation Zrotation
						End Site
						{
							OFFSET 3.93700 0.00000 0.00000
						}
						JOINT LeftHandThumb1
						{
							OFFSET 0.00000 0.00000 0.00000
							CHANNELS 3 Xrotation Zrotation Yrotation
							End Site
							{
								OFFSET 0.00000 0.00000 3.93700
							}
						}
					}
				}
			}
		}
		JOINT Head
		{
			OFFSET 0.00000 19.25010 0.00000
			CHANNELS 3 Xrotation Yrotation Zrotation
			End Site
			{
				OFFSET 0.00000 4.52755 0.00000
			}
		}
	}
}
MOTION
Frames: 16
Frame Time: 0.008333
 -1.0984 32.2254 -2.2497 40.3910 -8.2508 3.8876 -32.4005 -5.2657 3.0239 0.8192 -0.0000 0.0000 -14.5830 6.9858 11.0965 14.8377 -0.0000 0.0000 -30.6030 13.3075 3.4318 -0.3877 -0.0000 -0.0000 -15.0952 -0.5601 -1.7949 7.0174 0.0000 0.0000 -46.1182 -4.4159 -5.5821 -55.1434 22.1489 -57.2133 -45.4598 18.1080 42.5349 146.5309 0.0000 -23.1420 4.2827 16.9245 -14.4261 32.8623 0.0000 -24.3270 15.5011 15.8583 41.2339 49.0293 -73.2447 -40.1190 -103.1356 -0.0000 -14.3793 4.9335 5.1084 -44.1106 33.1476 -0.0000 26.2537 31.7216 11.2037 37.9285
 -1.1078 32.2256 -2.2347 40.4420 -8.4131 3.9883 -32.4230 -5.1707 3.0420 0.8131 0.0000 0.0000 -14.5175 7.0634 11.2727 14.7268 -0.0000 0.0000 -30.6170 13.4685 3.4499 -0.3407 0.0000 -0.0000 -15.1322 -0.5155 -1.7696 6.9869 0.0000 -0.0000 -46.1665 -4.2098 -5.5747 -55.1887 22.1930 -57.2141 -45.4935 18.3345 42.7035 146.3931 0.0000 -23.3484 4.0658 16.6670 -13.9192 32.8623 0.0000 -24.3270 15.5901 15.9956 41.3246 49.3538 -72.9633 -39.7267 -103.5728 -0.0000 -14.5014 4.9102 5.0951 -44.0495 33.1476 -0.0000 26.2537 31.7155 11.2353 38.2491
 -1.1149 32.2235 -2.2165 40.4578 -8.6073 4.1053 -32.4226 -5.0767 3.0534 0.8360 -0.0000 0.0000 -14.5732 7.1776 11.2622 14.8933 -0.0000 0.0000 -30.6120 13.7868 3.4644 -0.2468 0.0000 0.0000 -15.2215 -0.5996 -1.7463 6.9543 -0.0000 -0.0000 -46.1797 -3.9484 -5.5235 -55.1554 22.2360 -57.2863 -45.5809 18.5374 42.8372 146.2418 0.0000 -23.4264 3.9940 16.5176 -13.7977 32.8623 0.0000 -24.3270 15.6893 16.1178 41.3640 49.6862 -72.6833 -39.2903 -104.0219 -0.0000 -14.6165 4.9423 5.1172 -44.1136 33.1476 -0.0000 26.2537 31.6620 11.3766 38.5968
 -1.1229 32.2223 -2.2014 40.4806 -8.7440 4.1855 -32.4224 -5.0217 3.0713 0.8429 -0.0000 0.0000 -14.5724 7.2721 11.3137 14.9045 -0.0000 0.0000 -30.4967 13.5666 3.4676 -0.3534 -0.0000 -0.0000 -15.2115 -0.2467 -1.7281 6.9900 -0.0000 -0.0000 -46.2028 -3.7487 -5.5046 -55.1318 22.3127 -57.3335 -45.6219 18.7061 42.9571 146.1084 0.0000 -23.3878 3.8468 16.2818 -13.4869 32.8623 0.0000 -24.3270 15.7759 16.2142 41.4280 50.0005 -72.4118 -38.8976 -104.4174 -0.0000 -14.5065 4.8550 5.0158 -44.1718 33.1476 -0.0000 26.2537 31.6927 11.4152 38.8625
 -1.1335 32.2218 -2.1824 40.4953 -8.8824 4.2778 -32.4090 -4.9781 3.0835 0.8474 -0.0000 0.0000 -14.5340 7.3339 11.5599 14.8326 0.0000 0.0000 -30.4229 13.5697 3.4728 -0.3761 -0.0000 0.0000 -15.2096 -0.0905 -1.7353 6.9336 -0.0000 0.0000 -46.2386 -3.5581 -5.4989 -55.0851 22.3655 -57.3461 -45.7308 18.8810 43.0865 145.9227 0.0000 -23.4000 3.8175 16.1903 -13.4583 32.8623 0.0000 -24.3270 15.8814 16.3192 41.4938 50.3414 -72.1755 -38.4859 -104.8325 -0.0000 -14.4571 4.9045 5.0565 -44.2329 33.1476 -0.0000 26.2537 31.7632 11.4647 39.1120
 -1.1451 32.2219 -2.1657 40.5094 -8.9815 4.3404 -32.3916 -4.9569 3.1040 0.8519 0.0000 -0.0000 -14.5629 7.4284 11.4404 14.9081 0.0000 -0.0000 -30.3958 13.6387 3.4932 -0.3480 -0.0000 0.0000 -15.2235 -0.0573 -1.7396 6.8773 0.0000 0.0000 -46.2676 -3.4137 -5.5072 -55.0123 22.3684 -57.3535 -45.8844 19.1014 43.2078 145.7034 0.0000 -23.2320 3.8212 16.0647 -13.5698 32.8623 0.0000 -24.3270 15.9722 16.4163 41.5571 50.8345 -71.9601 -37.9342 -105.2321 -0.0000 -14.2872 4.8741 5.0311 -44.1977 33.1476 -0.0000 26.2537 31.8277 11.5016 39.4209
 -1.1541 32.2235 -2.1512 40.5600 -9.1065 4.4273 -32.4258 -4.9052 3.1206 0.8713 -0.0000 -0.0000 -14.5361 7.4961 11.5118 14.8767 -0.0000 -0.0000 -30.4004 13.7006 3.5010 -0.3245 -0.0000 -0.0000 -15.2230 0.0310 -1.6693 6.8356 0.0000 0.0000 -46.3336 -3.2528 -5.5087 -54.9652 22.3955 -57.3133 -46.0606 19.2784 43.3436 145.4301 0.0000 -23.2598 3.7459 15.9241 -13.4214 32.8623 0.0000 -24.3270 16.0775 16.5124 41.6419 51.2762 -71.8052 -37.4368 -105.6098 -0.0000 -14.0469 4.8566 5.0138 -44.1928 33.1476 -0.0000 26.2537 31.9309 11.5726 39.7052
 -1.1621 32.2235 -2.1396 40.5448 -9.2645 4.5399 -32.4094 -4.7529 3.1188 0.8976 0.0000 0.0000 -14.5483 7.5118 11.5345 14.8810 0.0000 -0.0000 -30.3340 13.7871 3.4937 -0.2892 0.0000 0.0000 -15.2452 0.1359 -1.6569 6.7991 0.0000 -0.0000 -46.3209 -3.0397 -5.5164 -54.9885 22.5459 -57.2608 -46.1068 19.4374 43.5298 145.1201 0.0000 -23.3747 3.7346 15.7971 -13.4834 32.8623 0.0000 -24.3270 16.1798 16.5682 41.7099 51.8530 -71.6950 -36.8324 -105.9437 -0.0000 -13.8468 4.8230 5.0000 -44.0717 33.1476 -0.0000 26.2537 32.0728 11.6345 39.9271
 -1.1739 32.2237 -2.1250 40.5533 -9.3325 4.5865 -32.3918 -4.7674 3.1365 0.9110 -0.0000 0.0000 -14.5488 7.5696 11.5627 14.8602 -0.0000 -0.0000 -30.3166 13.7597 3.5085 -0.2419 -0.0000 -0.0000 -15.2634 0.2367 -1.6132 6.7462 0.0000 -0.0000 -46.3498 -2.9280 -5.5456 -54.9652 22.6459 -57.2010 -46.2311 19.5704 43.6750 144.7277 0.0000 -23.6896 3.7565 15.8059 -13.5525 32.8623 0.0000 -24.3270 16.2546 16.5805 41.7737 52.6627 -71.6290 -36.0542 -106.2808 -0.0000 -13.6543 4.7526 4.9641 -43.8546 33.1476 -0.0000 26.2537 32.2714 11.6409 40.1509
 -1.1846 32.2222 -2.1110 40.6200 -9.4425 4.6526 -32.4366 -4.7359 3.1661 0.9255 0.0000 -0.0000 -14.5626 7.6524 11.6147 14.8735 -0.0000 0.0000 -30.3543 13.8616 3.5385 -0.2015 -0.0000 0.0000 -15.3101 0.2738 -1.6346 6.7198 -0.0000 -0.0000 -46.4379 -2.6520 -5.5171 -54.8299 22.7194 -57.3096 -46.3891 19.6293 43.8448 144.3541 0.0000 -23.9490 3.6303 15.4937 -13.3605 32.8623 0.0000 -24.3270 16.3469 16.5614 41.8127 53.5901 -71.5903 -34.9763 -106.5992 -0.0000 -13.7080 4.6863 4.9271 -43.6642 33.1476 -0.0000 26.2537 32.5187 11.5492 40.3061
 -1.1912 32.2206 -2.0990 40.6623 -9.5603 4.7280 -32.4708 -4.7072 3.1808 0.9569 -0.0000 0.0000 -14.5717 7.7248 11.6972 14.8826 -0.0000 -0.0000 -30.3599 13.9593 3.5502 -0.1714 -0.0000 -0.0000 -15.3515 0.3040 -1.5961 6.7150 0.0000 0.0000 -46.4885 -2.1900 -5.4648 -54.6003 22.6982 -57.6129 -46.5258 19.7152 44.0444 143.9595 0.0000 -24.0487 3.4761 15.0517 -13.1653 32.8623 0.0000 -24.3270 16.5044 16.2694 41.8175 54.3990 -71.4526 -34.1450 -106.9728 -0.0000 -13.4502 4.6567 4.9548 -43.3225 33.1476 -0.0000 26.2537 32.7966 11.3259 40.5219
 -1.1998 32.2185 -2.0807 40.6630 -9.6639 4.7688 -32.4387 -4.7217 3.2096 0.9673 -0.0000 0.0000 -14.5632 7.8455 11.8245 14.7965 0.0000 -0.0000 -30.3047 14.0153 3.5748 -0.1711 0.0000 0.0000 -15.3919 0.3732 -1.5785 6.6989 0.0000 0.0000 -46.5189 -2.0248 -5.4385 -54.5065 22.8224 -57.6126 -46.5746 19.8357 44.1580 143.5987 0.0000 -24.1890 3.3728 14.5186 -13.2290 32.8623 0.0000 -24.3270 16.6815 16.3125 41.8041 55.1166 -71.4308 -33.3631 -107.2798 -0.0000 -13.1694 4.6672 5.0036 -43.1076 33.1476 -0.0000 26.2537 33.0517 11.3116 40.6924
 -1.2030 32.2175 -2.0717 40.6957 -9.8017 4.8515 -32.4839 -4.6461 3.2196 1.0274 -0.0000 0.0000 -14.6186 7.9146 11.7617 14.9229 -0.0000 -0.0000 -30.2939 14.1002 3.5778 -0.1532 -0.0000 -0.0000 -15.4267 0.4558 -1.5045 6.7129 -0.0000 0.0000 -46.5519 -1.8244 -5.4104 -54.3977 22.8631 -57.6194 -46.7329 19.9373 44.3323 143.1941 0.0000 -24.2679 3.3018 14.1376 -13.2895 32.8623 0.0000 -24.3270 16.9000 16.3991 41.7761 55.4395 -71.4417 -32.9650 -107.5634 -0.0000 -12.8580 4.5268 4.8729 -42.9853 33.1476 -0.0000 26.2537 33.2669 11.3792 40.9044
 -1.2133 32.2162 -2.0578 40.6816 -9.9115 4.8780 -32.4534 -4.6209 3.2631 1.0601 0.0000 -0.0000 -14.6283 7.9977 11.8146 14.9413 0.0000 -0.0000 -30.2461 14.1634 3.6245 -0.1325 -0.0000 -0.0000 -15.4866 0.5092 -1.5257 6.7423 0.0000 -0.0000 -46.5547 -1.7165 -5.3959 -54.2609 22.8663 -57.5996 -46.8710 20.0851 44.4657 142.7287 0.0000 -24.5503 3.2399 13.9426 -13.2211 32.8623 0.0000 -24.3270 17.0377 16.3673 41.7575 55.8579 -71.4051 -32.7594 -107.8759 -0.0000 -12.5500 4.5324 4.9040 -42.8396 33.1476 -0.0000 26.2537 33.5484 11.3941 41.0620
 -1.2215 32.2132 -2.0447 40.6852 -10.0012 4.9107 -32.4409 -4.5589 3.2902 1.0807 0.0000 -0.0000 -14.6211 8.0205 11.9842 14.8541 0.0000 -0.0000 -30.2466 14.3310 3.6595 -0.0726 -0.0000 -0.0000 -15.5497 0.4394 -1.5296 6.6713 -0.0000 -0.0000 -46.5659 -1.5637 -5.3952 -54.0268 22.7732 -57.6505 -47.0051 20.2516 44.5146 142.2653 0.0000 -24.9067 3.1539 13.6675 -13.1266 32.8623 0.0000 -24.3270 17.3540 16.5955 41.7597 55.8621 -71.4966 -32.5305 -108.0798 -0.0000 -12.4381 4.6146 5.0049 -42.7745 33.1476 -0.0000 26.2537 33.8523 11.3199 41.2180
 -1.2316 32.2086 -2.0280 40.6511 -10.0883 4.9379 -32.3792 -4.5355 3.3146 1.1042 0.0000 -0.0000 -14.6979 8.0960 11.9217 14.9034 -0.0000 -0.0000 -30.1303 14.3258 3.6785 -0.1280 0.0000 -0.0000 -15.5879 0.5490 -1.5363 6.7176 -0.0000 0.0000 -46.5552 -1.3464 -5.3778 -53.7606 22.7166 -57.8076 -47.0189 20.4733 44.5961 141.7995 0.0000 -25.3045 3.1873 13.7097 -13.2224 32.8623 0.0000 -24.3270 17.5921 16.7189 41.7434 56.1946 -71.6041 -32.0512 -108.2951 -0.0000 -12.3039 4.5758 5.0066 -42.5231 33.1476 -0.0000 26.2537 34.1849 11.1728 41.3219
